PathFileType	3	(X/Y/Z)	D:\Vicon Setup\UG\Test1\New Session\NewSession14.trc
DataRate	CameraRate	NumFrames	NumMarkers	Units	OrigDataRate	OrigDataStartFrame	OrigNumFrames
100.0	100.0	8	27	mm	100.0	463	173	
Frame#	Time	Sternum			LShoulder			RShoulder			LASIS			RASIS			RPSIS			LPSIS			RKneeLateral			RKneeMedial			RFibulaHead			RMidShank			RAnkleLateral			RAnkleMedial			RHeel			RMT5			RMT2			RToe			LKneeLateral			LKneeMedial			LFibulaHead			LMidShank			LAnkleLateral			LAnkleMedial			LHeel			LMT5			LMT2			LToe			
		X1	Y1	Z1	X2	Y2	Z2	X3	Y3	Z3	X4	Y4	Z4	X5	Y5	Z5	X6	Y6	Z6	X7	Y7	Z7	X8	Y8	Z8	X9	Y9	Z9	X10	Y10	Z10	X11	Y11	Z11	X12	Y12	Z12	X13	Y13	Z13	X14	Y14	Z14	X15	Y15	Z15	X16	Y16	Z16	X17	Y17	Z17	X18	Y18	Z18	X19	Y19	Z19	X20	Y20	Z20	X21	Y21	Z21	X22	Y22	Z22	X23	Y23	Z23	X24	Y24	Z24	X25	Y25	Z25	X26	Y26	Z26	X27	Y27	Z27	
463	4.62	-257.78845	1426.6807	-2787.9717	-418.47278	1472.1638	-2672.2986	-61.94545	1457.6213	-2733.3003	-355.47928	1022.5811	-2731.656	-103.7822	1034.2496	-2735.2251	-177.71982	1073.8425	-2568.7175	-305.69864	1061.1445	-2561.6162	-76.998138	568.05139	-2579.9143	-197.02858	530.56537	-2615.302	-73.160202	508.70358	-2529.866	-160.08549	375.17813	-2436.6223	-126.2331	290.62317	-2238.5706	-188.98326	259.58459	-2304.4006	-200.99074	343.13812	-2214.9062	-96.9748	129.76979	-2207.8958	-148.35081	137.82964	-2265.563	-144.06946	94.048752	-2270.738	-388.83148	556.75311	-2816.1821	-257.41785	540.44055	-2831.5208	-391.84906	493.95203	-2820.6682	-316.85733	356.40976	-2901.7419	-363.33652	128.32921	-2905.6179	-287.89484	168.93582	-2938.7346	-295.65738	105.96108	-2841.1975				-327.5921	106.97029	-3058.1426	-379.25156	57.051426	-3048.0806
464	4.63	-259.70996	1423.2216	-2815.7139	-421.22751	1466.6328	-2700.4321	-64.145569	1454.7365	-2760.1987	-356.50983	1018.2201	-2761.6821	-104.53738	1031.2135	-2763.6865	-179.68172	1068.707	-2597.519	-307.73694	1055.2495	-2590.9155	-78.084892	561.64136	-2621.0869	-198.4404	524.7558	-2655.2729	-73.956627	504.15564	-2570.5623	-161.6881	376.63754	-2470.5962	-128.36913	302.43777	-2268.3091	-191.03267	268.77328	-2332.8962	-203.36308	355.28516	-2245.7961	-97.358307	143.08617	-2233.0945	-148.93054	149.04161	-2290.9646	-144.28217	104.93292	-2294.6387	-388.38217	551.79315	-2842.7661	-256.14557	538.03693	-2859.2888	-391.08853	488.77167	-2845.8191	-316.68903	350.91983	-2926.6714	-361.26282	122.23144	-2926.8184	-286.53189	163.15828	-2962.1958	-292.28152	101.71099	-2863.6101				-327.94385	98.461601	-3079.9053	-379.37891	48.777794	-3067.3674
465	4.64	-261.42313	1417.5115	-2844.4868	-423.84952	1459.8704	-2728.854	-66.122849	1450.7014	-2787.1643	-357.70248	1012.8527	-2791.0991	-105.25566	1027.184	-2792.2051	-181.26668	1062.1582	-2626.0723	-309.48044	1048.3325	-2619.8979	-79.106483	553.84387	-2663.3989	-200.2097	518.66901	-2695.7983	-74.972725	498.40546	-2612.7075	-163.2896	377.14703	-2506.458	-130.04253	313.52438	-2301.1094	-193.16968	277.3876	-2363.6057	-204.94923	367.03702	-2279.6052	-97.913879	155.93915	-2260.9221	-150.23239	159.63785	-2318.2234	-145.4519	115.23219	-2320.3884	-388.13361	546.22076	-2870.0356	-255.375	536.25684	-2887.3535	-390.61813	482.62186	-2870.6736	-316.29501	343.90088	-2949.6646	-359.64905	115.13953	-2945.7605	-285.08972	155.55643	-2982.5088	-290.13275	97.038841	-2882.2622				-325.60263	87.263718	-3098.3049	-376.84406	37.729458	-3083.9153
466	4.65	-262.69403	1410.4016	-2873.2932	-426.80429	1452.1476	-2757.5281	-68.132195	1445.7548	-2813.8621	-359.07657	1006.8277	-2820.6523	-106.02159	1021.6607	-2820.384	-182.63153	1053.9867	-2654.4983	-310.79816	1040.4127	-2648.8267	-79.912338	546.08618	-2705.908	-202.39894	512.35272	-2736.3943	-75.965775	491.83435	-2655.9392	-165.23486	377.49374	-2543.7205	-131.32112	323.5235	-2336.6245	-195.53455	285.33289	-2396.4893	-206.06818	378.28375	-2316.1501	-98.692352	168.01723	-2291.0125	-151.97333	169.47112	-2347.5974	-147.22116	124.90566	-2348.0544	-387.97083	539.82251	-2896.7812	-256.26877	533.70502	-2916.875	-390.42642	475.54132	-2895.1646	-315.52161	335.60861	-2971.2927	-357.92276	107.03268	-2962.1292	-282.9509	146.63905	-2999.3413	-286.83676	93.780914	-2896.0054				-320.07404	73.748154	-3112.7317	-373.8689	26.811565	-3097.3391
467	4.66	-263.54376	1402.0574	-2901.9612	-429.9321	1443.4314	-2786.6035	-70.061691	1439.8115	-2840.2749	-360.47827	1000.6483	-2850.3147	-106.81413	1015.1238	-2848.7656	-183.65245	1044.6105	-2682.4592	-311.95905	1031.6855	-2677.5354	-80.526436	537.31989	-2749.7124	-204.10449	505.70679	-2777.6765	-77.046478	484.47733	-2700.0371	-167.1144	377.24393	-2582.5222	-132.45093	332.53262	-2374.2817	-197.58128	292.44601	-2431.5339	-206.73375	388.47888	-2355.053	-99.574089	179.0692	-2323.3413	-153.75328	178.4362	-2378.8567	-149.09752	133.82953	-2378.1477	-388.02213	532.96307	-2922.7803	-258.67212	528.11743	-2946.4592	-390.5116	467.66641	-2919.1541	-313.98163	326.31558	-2990.8333	-354.34775	104.2235	-2969.3401	-278.35776	139.44432	-3011.4944	-279.77451	95.553558	-2903.9622				-311.91879	61.735294	-3120.1799	-377.63278	26.439966	-3101.1829
468	4.67	-264.09879	1392.5486	-2930.2817	-433.25699	1433.906	-2816.0391	-71.887093	1433.0979	-2866.199	-361.50439	994.13654	-2878.9407	-107.73841	1007.4225	-2877.075	-184.47467	1034.054	-2710.4575	-313.30426	1022.3725	-2705.5818	-80.649467	527.9411	-2794.3535	-206.0762	498.11771	-2819.5889	-78.381577	476.4451	-2744.8472	-168.73868	376.31104	-2622.7764	-133.3437	340.58905	-2413.6636	-199.17088	298.74881	-2468.5923	-207.35283	397.49524	-2395.5393	-100.32982	189.00507	-2358.1592	-155.10822	186.57037	-2412.8967	-150.40565	142.05785	-2411.1057	-387.10104	525.54395	-2948.6145	-260.86713	520.18884	-2973.8279	-389.45972	459.3862	-2943.6797	-308.87909	315.82324	-3006.1858	-345.23572	100.16535	-2968.9797	-267.44193	132.24117	-3010.7827	-273.42154	79.649277	-2897.6482				-306.04858	60.043697	-3118.1257	-379.00406	25.052042	-3104.73
469	4.68	-264.29114	1381.9845	-2958.135	-436.93491	1423.9197	-2845.8196	-73.34716	1426.0406	-2891.6267	-362.36395	987.55426	-2906.9202	-108.48377	998.80481	-2905.3071	-185.29591	1022.7332	-2738.0117	-314.84024	1012.7897	-2732.7144	-80.69101	518.57452	-2839.7781	-208.26891	490.05295	-2863.1582	-79.004715	468.88226	-2790.1611	-170.11858	375.02606	-2664.373	-133.94856	347.60477	-2454.585	-199.30539	303.96121	-2507.5378	-207.8761	405.12991	-2437.4229	-100.59612	197.6445	-2395.8267	-155.71407	193.84692	-2450.0173	-150.94586	149.41982	-2447.5361	-386.5029	517.96735	-2976.2798	-259.59085	511.91431	-2998.6611	-387.74634	451.61456	-2971.5022	-299.935	305.65289	-3016.2661	-336.25815	94.146973	-2960.3604	-253.42416	123.21676	-2996.0779	-265.99344	66.830414	-2893.7327				-300.83099	58.432327	-3115.9304	-380.19986	22.50037	-3108.6272
470	4.69	-263.99664	1370.7332	-2985.7124	-440.97153	1413.9032	-2875.824	-74.568352	1418.9084	-2916.6587	-364.07193	981.31708	-2934.5466	-109.16885	989.86139	-2933.0681	-186.04639	1010.9022	-2763.8496	-316.36774	1003.2822	-2758.6675	-81.043289	509.88824	-2885.1956	-210.68594	482.26636	-2908.572	-79.757515	462.02191	-2835.99	-171.42938	373.79803	-2707.4341	-134.39496	353.40347	-2497.3501	-200.17963	308.7923	-2548.9817	-208.08377	411.2605	-2480.3103	-100.47337	204.45784	-2436.7622	-155.76048	199.97958	-2490.646	-150.9086	155.53665	-2487.6455	-385.07047	509.03494	-3007.1375	-257.90192	506.91373	-3025.8567	-384.55646	445.06253	-2998.95	-290.76389	298.05362	-3026.032	-330.84122	96.702797	-2965.5898	-247.99445	120.03339	-3002.6697	-262.89334	64.477768	-2894.1255				-300.07651	56.674625	-3118.4358	-381.79749	19.163473	-3112.4722
